<?xml version="1.0" encoding="utf-8"?>
<!-- Generator: Adobe Illustrator 18.0.0, SVG Export Plug-In . SVG Version: 6.00 Build 0)  -->
<!DOCTYPE svg PUBLIC "-//W3C//DTD SVG 1.1//EN" "http://www.w3.org/Graphics/SVG/1.1/DTD/svg11.dtd">
<svg version="1.1" id="Layer_1" xmlns="http://www.w3.org/2000/svg" xmlns:xlink="http://www.w3.org/1999/xlink" x="0px" y="0px"
	 viewBox="0 0 64 64" enable-background="new 0 0 64 64" xml:space="preserve">
<g>
	<g>
		<g>
			<g>
				<polygon points="45,16 32,0 19,16 28,16 28,40 36,40 36,16 				"/>
			</g>
		</g>
	</g>
	<g>
		<g>
			<g>
				<g>
					<path d="M52.4,64H12c-4.4,0-8-3.7-8-8.3V29.8c0-4.3,3.4-7.8,7.6-7.8H22v8H12v25.7c0,0.2,0.1,0.3,0.1,0.3L52,56V30.2
						c0-0.1,0-0.2-0.1-0.2H42v-8h10c4.4,0,8,3.7,8,8.2v26C60,60.5,56.6,64,52.4,64z"/>
				</g>
			</g>
		</g>
	</g>
</g>
</svg>
